<svg width="611" height="36" viewBox="0 0 611 36" fill="none" xmlns="http://www.w3.org/2000/svg">
<g clip-path="url(#clip0_1_115)">
<path fill-rule="evenodd" clip-rule="evenodd" d="M164.939 28.284C164.699 28.284 164.464 28.2671 164.233 28.2346C164.266 28.465 164.283 28.7004 164.283 28.9398C164.283 31.697 162.047 33.9321 159.29 33.9321C156.532 33.9321 154.296 31.697 154.296 28.9398C154.296 28.6501 154.369 18.3449 154.369 18.3449C154.598 18.3126 164.7 18.2994 164.939 18.2994C167.696 18.2994 169.932 20.5346 169.932 23.2917C169.932 26.0489 167.696 28.284 164.939 28.284Z" fill="#260085"/>
<path fill-rule="evenodd" clip-rule="evenodd" d="M164.266 7.06015C164.266 7.29955 164.249 7.53502 164.217 7.76543C164.447 7.73285 164.683 7.71599 164.922 7.71599C167.68 7.71599 169.915 9.95111 169.915 12.7083C169.915 15.4654 167.68 17.7006 164.922 17.7006C164.632 17.7006 154.325 17.6285 154.325 17.6285C154.293 17.3991 154.28 7.29845 154.28 7.06016C154.28 4.303 156.515 2.06787 159.273 2.06787C162.031 2.06787 164.266 4.30299 164.266 7.06015Z" fill="white"/>
<path fill-rule="evenodd" clip-rule="evenodd" d="M164.266 7.06015C164.266 7.29955 164.249 7.53502 164.217 7.76543C164.447 7.73285 164.683 7.71599 164.922 7.71599C167.68 7.71599 169.915 9.95111 169.915 12.7083C169.915 15.4654 167.68 17.7006 164.922 17.7006C164.632 17.7006 154.325 17.6285 154.325 17.6285C154.293 17.3991 154.28 7.29845 154.28 7.06016C154.28 4.303 156.515 2.06787 159.273 2.06787C162.031 2.06787 164.266 4.30299 164.266 7.06015Z" fill="#260085" fill-opacity="0.3"/>
<path fill-rule="evenodd" clip-rule="evenodd" d="M143.717 28.9173C143.717 28.6779 143.734 28.4424 143.767 28.212C143.536 28.2446 143.301 28.2615 143.061 28.2615C140.304 28.2615 138.068 26.0263 138.068 23.2692C138.068 20.512 140.304 18.2769 143.061 18.2769C143.351 18.2769 153.658 18.3489 153.658 18.3489C153.69 18.5783 153.704 28.679 153.704 28.9173C153.704 31.6745 151.468 33.9096 148.71 33.9096C145.953 33.9096 143.717 31.6745 143.717 28.9173Z" fill="white"/>
<path fill-rule="evenodd" clip-rule="evenodd" d="M143.717 28.9173C143.717 28.6779 143.734 28.4424 143.767 28.212C143.536 28.2446 143.301 28.2615 143.061 28.2615C140.304 28.2615 138.068 26.0263 138.068 23.2692C138.068 20.512 140.304 18.2769 143.061 18.2769C143.351 18.2769 153.658 18.3489 153.658 18.3489C153.69 18.5783 153.704 28.679 153.704 28.9173C153.704 31.6745 151.468 33.9096 148.71 33.9096C145.953 33.9096 143.717 31.6745 143.717 28.9173Z" fill="#260085" fill-opacity="0.3"/>
<path fill-rule="evenodd" clip-rule="evenodd" d="M143.061 7.716C143.301 7.716 143.536 7.73285 143.767 7.76543C143.734 7.53503 143.717 7.29956 143.717 7.06016C143.717 4.303 145.953 2.06788 148.71 2.06788C151.468 2.06788 153.704 4.303 153.704 7.06016C153.704 7.34987 153.631 17.6551 153.631 17.6551C153.402 17.6874 143.3 17.7006 143.061 17.7006C140.304 17.7006 138.068 15.4654 138.068 12.7083C138.068 9.95112 140.304 7.716 143.061 7.716Z" fill="#260085"/>
<path fill-rule="evenodd" clip-rule="evenodd" d="M232.939 28.284C232.699 28.284 232.464 28.2671 232.233 28.2346C232.266 28.465 232.283 28.7004 232.283 28.9398C232.283 31.697 230.047 33.9321 227.29 33.9321C224.532 33.9321 222.296 31.697 222.296 28.9398C222.296 28.6501 222.369 18.3449 222.369 18.3449C222.598 18.3126 232.7 18.2994 232.939 18.2994C235.696 18.2994 237.932 20.5346 237.932 23.2917C237.932 26.0489 235.696 28.284 232.939 28.284Z" fill="#F78100"/>
<path fill-rule="evenodd" clip-rule="evenodd" d="M232.266 7.06015C232.266 7.29955 232.249 7.53502 232.217 7.76543C232.447 7.73285 232.683 7.71599 232.922 7.71599C235.68 7.71599 237.915 9.95111 237.915 12.7083C237.915 15.4654 235.68 17.7006 232.922 17.7006C232.632 17.7006 222.325 17.6285 222.325 17.6285C222.293 17.3991 222.28 7.29845 222.28 7.06016C222.28 4.303 224.515 2.06787 227.273 2.06787C230.031 2.06787 232.266 4.30299 232.266 7.06015Z" fill="white"/>
<path fill-rule="evenodd" clip-rule="evenodd" d="M232.266 7.06015C232.266 7.29955 232.249 7.53502 232.217 7.76543C232.447 7.73285 232.683 7.71599 232.922 7.71599C235.68 7.71599 237.915 9.95111 237.915 12.7083C237.915 15.4654 235.68 17.7006 232.922 17.7006C232.632 17.7006 222.325 17.6285 222.325 17.6285C222.293 17.3991 222.28 7.29845 222.28 7.06016C222.28 4.303 224.515 2.06787 227.273 2.06787C230.031 2.06787 232.266 4.30299 232.266 7.06015Z" fill="#F78100" fill-opacity="0.5"/>
<path fill-rule="evenodd" clip-rule="evenodd" d="M211.717 28.9173C211.717 28.6779 211.734 28.4424 211.767 28.212C211.536 28.2446 211.301 28.2615 211.061 28.2615C208.304 28.2615 206.068 26.0263 206.068 23.2692C206.068 20.512 208.304 18.2769 211.061 18.2769C211.351 18.2769 221.658 18.3489 221.658 18.3489C221.69 18.5783 221.704 28.679 221.704 28.9173C221.704 31.6745 219.468 33.9096 216.71 33.9096C213.953 33.9096 211.717 31.6745 211.717 28.9173Z" fill="white"/>
<path fill-rule="evenodd" clip-rule="evenodd" d="M211.717 28.9173C211.717 28.6779 211.734 28.4424 211.767 28.212C211.536 28.2446 211.301 28.2615 211.061 28.2615C208.304 28.2615 206.068 26.0263 206.068 23.2692C206.068 20.512 208.304 18.2769 211.061 18.2769C211.351 18.2769 221.658 18.3489 221.658 18.3489C221.69 18.5783 221.704 28.679 221.704 28.9173C221.704 31.6745 219.468 33.9096 216.71 33.9096C213.953 33.9096 211.717 31.6745 211.717 28.9173Z" fill="#F78100" fill-opacity="0.5"/>
<path fill-rule="evenodd" clip-rule="evenodd" d="M211.061 7.716C211.301 7.716 211.536 7.73285 211.767 7.76543C211.734 7.53503 211.717 7.29956 211.717 7.06016C211.717 4.303 213.953 2.06788 216.71 2.06788C219.468 2.06788 221.704 4.303 221.704 7.06016C221.704 7.34987 221.631 17.6551 221.631 17.6551C221.402 17.6874 211.3 17.7006 211.061 17.7006C208.304 17.7006 206.068 15.4654 206.068 12.7083C206.068 9.95112 208.304 7.716 211.061 7.716Z" fill="#F78100"/>
<path fill-rule="evenodd" clip-rule="evenodd" d="M300.939 28.284C300.699 28.284 300.464 28.2671 300.233 28.2346C300.266 28.465 300.283 28.7004 300.283 28.9398C300.283 31.697 298.047 33.9321 295.29 33.9321C292.532 33.9321 290.296 31.697 290.296 28.9398C290.296 28.6501 290.369 18.3449 290.369 18.3449C290.598 18.3126 300.7 18.2994 300.939 18.2994C303.696 18.2994 305.932 20.5346 305.932 23.2917C305.932 26.0489 303.696 28.284 300.939 28.284Z" fill="#02FF02"/>
<path fill-rule="evenodd" clip-rule="evenodd" d="M300.266 7.06015C300.266 7.29955 300.249 7.53502 300.217 7.76543C300.447 7.73285 300.683 7.71599 300.922 7.71599C303.68 7.71599 305.915 9.95111 305.915 12.7083C305.915 15.4654 303.68 17.7006 300.922 17.7006C300.632 17.7006 290.325 17.6285 290.325 17.6285C290.293 17.3991 290.28 7.29845 290.28 7.06016C290.28 4.303 292.515 2.06787 295.273 2.06787C298.031 2.06787 300.266 4.30299 300.266 7.06015Z" fill="white"/>
<path fill-rule="evenodd" clip-rule="evenodd" d="M300.266 7.06015C300.266 7.29955 300.249 7.53502 300.217 7.76543C300.447 7.73285 300.683 7.71599 300.922 7.71599C303.68 7.71599 305.915 9.95111 305.915 12.7083C305.915 15.4654 303.68 17.7006 300.922 17.7006C300.632 17.7006 290.325 17.6285 290.325 17.6285C290.293 17.3991 290.28 7.29845 290.28 7.06016C290.28 4.303 292.515 2.06787 295.273 2.06787C298.031 2.06787 300.266 4.30299 300.266 7.06015Z" fill="#02FF02" fill-opacity="0.3"/>
<path fill-rule="evenodd" clip-rule="evenodd" d="M279.717 28.9173C279.717 28.6779 279.734 28.4424 279.767 28.212C279.536 28.2446 279.301 28.2615 279.061 28.2615C276.304 28.2615 274.068 26.0263 274.068 23.2692C274.068 20.512 276.304 18.2769 279.061 18.2769C279.351 18.2769 289.658 18.3489 289.658 18.3489C289.69 18.5783 289.704 28.679 289.704 28.9173C289.704 31.6745 287.468 33.9096 284.71 33.9096C281.953 33.9096 279.717 31.6745 279.717 28.9173Z" fill="white"/>
<path fill-rule="evenodd" clip-rule="evenodd" d="M279.717 28.9173C279.717 28.6779 279.734 28.4424 279.767 28.212C279.536 28.2446 279.301 28.2615 279.061 28.2615C276.304 28.2615 274.068 26.0263 274.068 23.2692C274.068 20.512 276.304 18.2769 279.061 18.2769C279.351 18.2769 289.658 18.3489 289.658 18.3489C289.69 18.5783 289.704 28.679 289.704 28.9173C289.704 31.6745 287.468 33.9096 284.71 33.9096C281.953 33.9096 279.717 31.6745 279.717 28.9173Z" fill="#02FF02" fill-opacity="0.3"/>
<path fill-rule="evenodd" clip-rule="evenodd" d="M279.061 7.716C279.301 7.716 279.536 7.73285 279.767 7.76543C279.734 7.53503 279.717 7.29956 279.717 7.06016C279.717 4.303 281.953 2.06788 284.71 2.06788C287.468 2.06788 289.704 4.303 289.704 7.06016C289.704 7.34987 289.631 17.6551 289.631 17.6551C289.402 17.6874 279.3 17.7006 279.061 17.7006C276.304 17.7006 274.068 15.4654 274.068 12.7083C274.068 9.95112 276.304 7.716 279.061 7.716Z" fill="#02FF02"/>
<path fill-rule="evenodd" clip-rule="evenodd" d="M368.939 28.284C368.699 28.284 368.464 28.2671 368.233 28.2346C368.266 28.465 368.283 28.7004 368.283 28.9398C368.283 31.697 366.047 33.9321 363.29 33.9321C360.532 33.9321 358.296 31.697 358.296 28.9398C358.296 28.6501 358.369 18.3449 358.369 18.3449C358.598 18.3126 368.7 18.2994 368.939 18.2994C371.696 18.2994 373.932 20.5346 373.932 23.2917C373.932 26.0489 371.696 28.284 368.939 28.284Z" fill="#A61324"/>
<path fill-rule="evenodd" clip-rule="evenodd" d="M368.266 7.06015C368.266 7.29955 368.249 7.53502 368.217 7.76543C368.447 7.73285 368.683 7.71599 368.922 7.71599C371.68 7.71599 373.915 9.95111 373.915 12.7083C373.915 15.4654 371.68 17.7006 368.922 17.7006C368.632 17.7006 358.325 17.6285 358.325 17.6285C358.293 17.3991 358.28 7.29845 358.28 7.06016C358.28 4.303 360.515 2.06787 363.273 2.06787C366.031 2.06787 368.266 4.30299 368.266 7.06015Z" fill="white"/>
<path fill-rule="evenodd" clip-rule="evenodd" d="M368.266 7.06015C368.266 7.29955 368.249 7.53502 368.217 7.76543C368.447 7.73285 368.683 7.71599 368.922 7.71599C371.68 7.71599 373.915 9.95111 373.915 12.7083C373.915 15.4654 371.68 17.7006 368.922 17.7006C368.632 17.7006 358.325 17.6285 358.325 17.6285C358.293 17.3991 358.28 7.29845 358.28 7.06016C358.28 4.303 360.515 2.06787 363.273 2.06787C366.031 2.06787 368.266 4.30299 368.266 7.06015Z" fill="#A61324" fill-opacity="0.3"/>
<path fill-rule="evenodd" clip-rule="evenodd" d="M347.717 28.9173C347.717 28.6779 347.734 28.4424 347.767 28.212C347.536 28.2446 347.301 28.2615 347.061 28.2615C344.304 28.2615 342.068 26.0263 342.068 23.2692C342.068 20.512 344.304 18.2769 347.061 18.2769C347.351 18.2769 357.658 18.3489 357.658 18.3489C357.69 18.5783 357.704 28.679 357.704 28.9173C357.704 31.6745 355.468 33.9096 352.71 33.9096C349.953 33.9096 347.717 31.6745 347.717 28.9173Z" fill="white"/>
<path fill-rule="evenodd" clip-rule="evenodd" d="M347.717 28.9173C347.717 28.6779 347.734 28.4424 347.767 28.212C347.536 28.2446 347.301 28.2615 347.061 28.2615C344.304 28.2615 342.068 26.0263 342.068 23.2692C342.068 20.512 344.304 18.2769 347.061 18.2769C347.351 18.2769 357.658 18.3489 357.658 18.3489C357.69 18.5783 357.704 28.679 357.704 28.9173C357.704 31.6745 355.468 33.9096 352.71 33.9096C349.953 33.9096 347.717 31.6745 347.717 28.9173Z" fill="#A61324" fill-opacity="0.3"/>
<path fill-rule="evenodd" clip-rule="evenodd" d="M347.061 7.716C347.301 7.716 347.536 7.73285 347.767 7.76543C347.734 7.53503 347.717 7.29956 347.717 7.06016C347.717 4.303 349.953 2.06788 352.71 2.06788C355.468 2.06788 357.704 4.303 357.704 7.06016C357.704 7.34987 357.631 17.6551 357.631 17.6551C357.402 17.6874 347.3 17.7006 347.061 17.7006C344.304 17.7006 342.068 15.4654 342.068 12.7083C342.068 9.95112 344.304 7.716 347.061 7.716Z" fill="#A61324"/>
<path fill-rule="evenodd" clip-rule="evenodd" d="M436.939 28.284C436.699 28.284 436.464 28.2671 436.233 28.2346C436.266 28.465 436.283 28.7004 436.283 28.9398C436.283 31.697 434.047 33.9321 431.29 33.9321C428.532 33.9321 426.296 31.697 426.296 28.9398C426.296 28.6501 426.369 18.3449 426.369 18.3449C426.598 18.3126 436.7 18.2994 436.939 18.2994C439.696 18.2994 441.932 20.5346 441.932 23.2917C441.932 26.0489 439.696 28.284 436.939 28.284Z" fill="#103099"/>
<path fill-rule="evenodd" clip-rule="evenodd" d="M436.266 7.06015C436.266 7.29955 436.249 7.53502 436.217 7.76543C436.447 7.73285 436.683 7.71599 436.922 7.71599C439.68 7.71599 441.915 9.95111 441.915 12.7083C441.915 15.4654 439.68 17.7006 436.922 17.7006C436.632 17.7006 426.325 17.6285 426.325 17.6285C426.293 17.3991 426.28 7.29845 426.28 7.06016C426.28 4.303 428.515 2.06787 431.273 2.06787C434.031 2.06787 436.266 4.30299 436.266 7.06015Z" fill="white"/>
<path fill-rule="evenodd" clip-rule="evenodd" d="M436.266 7.06015C436.266 7.29955 436.249 7.53502 436.217 7.76543C436.447 7.73285 436.683 7.71599 436.922 7.71599C439.68 7.71599 441.915 9.95111 441.915 12.7083C441.915 15.4654 439.68 17.7006 436.922 17.7006C436.632 17.7006 426.325 17.6285 426.325 17.6285C426.293 17.3991 426.28 7.29845 426.28 7.06016C426.28 4.303 428.515 2.06787 431.273 2.06787C434.031 2.06787 436.266 4.30299 436.266 7.06015Z" fill="#103099" fill-opacity="0.4"/>
<path fill-rule="evenodd" clip-rule="evenodd" d="M415.717 28.9173C415.717 28.6779 415.734 28.4424 415.767 28.212C415.536 28.2446 415.301 28.2615 415.061 28.2615C412.304 28.2615 410.068 26.0263 410.068 23.2692C410.068 20.512 412.304 18.2769 415.061 18.2769C415.351 18.2769 425.658 18.3489 425.658 18.3489C425.69 18.5783 425.704 28.679 425.704 28.9173C425.704 31.6745 423.468 33.9096 420.71 33.9096C417.953 33.9096 415.717 31.6745 415.717 28.9173Z" fill="white"/>
<path fill-rule="evenodd" clip-rule="evenodd" d="M415.717 28.9173C415.717 28.6779 415.734 28.4424 415.767 28.212C415.536 28.2446 415.301 28.2615 415.061 28.2615C412.304 28.2615 410.068 26.0263 410.068 23.2692C410.068 20.512 412.304 18.2769 415.061 18.2769C415.351 18.2769 425.658 18.3489 425.658 18.3489C425.69 18.5783 425.704 28.679 425.704 28.9173C425.704 31.6745 423.468 33.9096 420.71 33.9096C417.953 33.9096 415.717 31.6745 415.717 28.9173Z" fill="#103099" fill-opacity="0.4"/>
<path fill-rule="evenodd" clip-rule="evenodd" d="M415.061 7.716C415.301 7.716 415.536 7.73285 415.767 7.76543C415.734 7.53503 415.717 7.29956 415.717 7.06016C415.717 4.303 417.953 2.06788 420.71 2.06788C423.468 2.06788 425.704 4.303 425.704 7.06016C425.704 7.34987 425.631 17.6551 425.631 17.6551C425.402 17.6874 415.3 17.7006 415.061 17.7006C412.304 17.7006 410.068 15.4654 410.068 12.7083C410.068 9.95112 412.304 7.716 415.061 7.716Z" fill="#103099"/>
<path fill-rule="evenodd" clip-rule="evenodd" d="M504.939 28.284C504.699 28.284 504.464 28.2671 504.233 28.2346C504.266 28.465 504.283 28.7004 504.283 28.9398C504.283 31.697 502.047 33.9321 499.29 33.9321C496.532 33.9321 494.296 31.697 494.296 28.9398C494.296 28.6501 494.369 18.3449 494.369 18.3449C494.598 18.3126 504.7 18.2994 504.939 18.2994C507.696 18.2994 509.932 20.5346 509.932 23.2917C509.932 26.0489 507.696 28.284 504.939 28.284Z" fill="#FB1F00"/>
<path fill-rule="evenodd" clip-rule="evenodd" d="M504.266 7.06015C504.266 7.29955 504.249 7.53502 504.217 7.76543C504.447 7.73285 504.683 7.71599 504.922 7.71599C507.68 7.71599 509.915 9.95111 509.915 12.7083C509.915 15.4654 507.68 17.7006 504.922 17.7006C504.632 17.7006 494.325 17.6285 494.325 17.6285C494.293 17.3991 494.28 7.29845 494.28 7.06016C494.28 4.303 496.515 2.06787 499.273 2.06787C502.031 2.06787 504.266 4.30299 504.266 7.06015Z" fill="white"/>
<path fill-rule="evenodd" clip-rule="evenodd" d="M504.266 7.06015C504.266 7.29955 504.249 7.53502 504.217 7.76543C504.447 7.73285 504.683 7.71599 504.922 7.71599C507.68 7.71599 509.915 9.95111 509.915 12.7083C509.915 15.4654 507.68 17.7006 504.922 17.7006C504.632 17.7006 494.325 17.6285 494.325 17.6285C494.293 17.3991 494.28 7.29845 494.28 7.06016C494.28 4.303 496.515 2.06787 499.273 2.06787C502.031 2.06787 504.266 4.30299 504.266 7.06015Z" fill="#FB1F00" fill-opacity="0.4"/>
<path fill-rule="evenodd" clip-rule="evenodd" d="M483.717 28.9173C483.717 28.6779 483.734 28.4424 483.767 28.212C483.536 28.2446 483.301 28.2615 483.061 28.2615C480.304 28.2615 478.068 26.0263 478.068 23.2692C478.068 20.512 480.304 18.2769 483.061 18.2769C483.351 18.2769 493.658 18.3489 493.658 18.3489C493.69 18.5783 493.704 28.679 493.704 28.9173C493.704 31.6745 491.468 33.9096 488.71 33.9096C485.953 33.9096 483.717 31.6745 483.717 28.9173Z" fill="white"/>
<path fill-rule="evenodd" clip-rule="evenodd" d="M483.717 28.9173C483.717 28.6779 483.734 28.4424 483.767 28.212C483.536 28.2446 483.301 28.2615 483.061 28.2615C480.304 28.2615 478.068 26.0263 478.068 23.2692C478.068 20.512 480.304 18.2769 483.061 18.2769C483.351 18.2769 493.658 18.3489 493.658 18.3489C493.69 18.5783 493.704 28.679 493.704 28.9173C493.704 31.6745 491.468 33.9096 488.71 33.9096C485.953 33.9096 483.717 31.6745 483.717 28.9173Z" fill="#FB1F00" fill-opacity="0.4"/>
<path fill-rule="evenodd" clip-rule="evenodd" d="M483.061 7.716C483.301 7.716 483.536 7.73285 483.767 7.76543C483.734 7.53503 483.717 7.29956 483.717 7.06016C483.717 4.303 485.953 2.06788 488.71 2.06788C491.468 2.06788 493.704 4.303 493.704 7.06016C493.704 7.34987 493.631 17.6551 493.631 17.6551C493.402 17.6874 483.3 17.7006 483.061 17.7006C480.304 17.7006 478.068 15.4654 478.068 12.7083C478.068 9.95112 480.304 7.716 483.061 7.716Z" fill="#FB1F00"/>
<path fill-rule="evenodd" clip-rule="evenodd" d="M572.939 28.284C572.699 28.284 572.464 28.2671 572.233 28.2346C572.266 28.465 572.283 28.7004 572.283 28.9398C572.283 31.697 570.047 33.9321 567.29 33.9321C564.532 33.9321 562.296 31.697 562.296 28.9398C562.296 28.6501 562.369 18.3449 562.369 18.3449C562.598 18.3126 572.7 18.2994 572.939 18.2994C575.696 18.2994 577.932 20.5346 577.932 23.2917C577.932 26.0489 575.696 28.284 572.939 28.284Z" fill="#0086B7"/>
<path fill-rule="evenodd" clip-rule="evenodd" d="M572.266 7.06015C572.266 7.29955 572.249 7.53502 572.217 7.76543C572.447 7.73285 572.683 7.71599 572.922 7.71599C575.68 7.71599 577.915 9.95111 577.915 12.7083C577.915 15.4654 575.68 17.7006 572.922 17.7006C572.632 17.7006 562.325 17.6285 562.325 17.6285C562.293 17.3991 562.28 7.29845 562.28 7.06016C562.28 4.303 564.515 2.06787 567.273 2.06787C570.031 2.06787 572.266 4.30299 572.266 7.06015Z" fill="white"/>
<path fill-rule="evenodd" clip-rule="evenodd" d="M572.266 7.06015C572.266 7.29955 572.249 7.53502 572.217 7.76543C572.447 7.73285 572.683 7.71599 572.922 7.71599C575.68 7.71599 577.915 9.95111 577.915 12.7083C577.915 15.4654 575.68 17.7006 572.922 17.7006C572.632 17.7006 562.325 17.6285 562.325 17.6285C562.293 17.3991 562.28 7.29845 562.28 7.06016C562.28 4.303 564.515 2.06787 567.273 2.06787C570.031 2.06787 572.266 4.30299 572.266 7.06015Z" fill="#0086B7" fill-opacity="0.4"/>
<path fill-rule="evenodd" clip-rule="evenodd" d="M551.717 28.9173C551.717 28.6779 551.734 28.4424 551.767 28.212C551.536 28.2446 551.301 28.2615 551.061 28.2615C548.304 28.2615 546.068 26.0263 546.068 23.2692C546.068 20.512 548.304 18.2769 551.061 18.2769C551.351 18.2769 561.658 18.3489 561.658 18.3489C561.69 18.5783 561.704 28.679 561.704 28.9173C561.704 31.6745 559.468 33.9096 556.71 33.9096C553.953 33.9096 551.717 31.6745 551.717 28.9173Z" fill="white"/>
<path fill-rule="evenodd" clip-rule="evenodd" d="M551.717 28.9173C551.717 28.6779 551.734 28.4424 551.767 28.212C551.536 28.2446 551.301 28.2615 551.061 28.2615C548.304 28.2615 546.068 26.0263 546.068 23.2692C546.068 20.512 548.304 18.2769 551.061 18.2769C551.351 18.2769 561.658 18.3489 561.658 18.3489C561.69 18.5783 561.704 28.679 561.704 28.9173C561.704 31.6745 559.468 33.9096 556.71 33.9096C553.953 33.9096 551.717 31.6745 551.717 28.9173Z" fill="#0086B7" fill-opacity="0.4"/>
<path fill-rule="evenodd" clip-rule="evenodd" d="M551.061 7.716C551.301 7.716 551.536 7.73285 551.767 7.76543C551.734 7.53503 551.717 7.29956 551.717 7.06016C551.717 4.303 553.953 2.06788 556.71 2.06788C559.468 2.06788 561.704 4.303 561.704 7.06016C561.704 7.34987 561.631 17.6551 561.631 17.6551C561.402 17.6874 551.3 17.7006 551.061 17.7006C548.304 17.7006 546.068 15.4654 546.068 12.7083C546.068 9.95112 548.304 7.716 551.061 7.716Z" fill="#0086B7"/>
<path fill-rule="evenodd" clip-rule="evenodd" d="M96.9387 28.284C96.6992 28.284 96.4637 28.2671 96.2333 28.2346C96.2658 28.465 96.2827 28.7004 96.2827 28.9398C96.2827 31.697 94.0472 33.9321 91.2896 33.9321C88.532 33.9321 86.2965 31.697 86.2965 28.9398C86.2965 28.6501 86.3685 18.3449 86.3685 18.3449C86.5979 18.3126 96.7003 18.2994 96.9387 18.2994C99.6963 18.2994 101.932 20.5346 101.932 23.2917C101.932 26.0489 99.6963 28.284 96.9387 28.284Z" fill="#930089"/>
<path fill-rule="evenodd" clip-rule="evenodd" d="M96.2662 7.06015C96.2662 7.29955 96.2493 7.53502 96.2168 7.76543C96.4472 7.73285 96.6827 7.71599 96.9221 7.71599C99.6798 7.71599 101.915 9.95111 101.915 12.7083C101.915 15.4654 99.6798 17.7006 96.9221 17.7006C96.6324 17.7006 86.3254 17.6285 86.3254 17.6285C86.2931 17.3991 86.2799 7.29845 86.2799 7.06016C86.2799 4.303 88.5154 2.06787 91.2731 2.06787C94.0307 2.06787 96.2662 4.30299 96.2662 7.06015Z" fill="white"/>
<path fill-rule="evenodd" clip-rule="evenodd" d="M96.2662 7.06015C96.2662 7.29955 96.2493 7.53502 96.2168 7.76543C96.4472 7.73285 96.6827 7.71599 96.9221 7.71599C99.6798 7.71599 101.915 9.95111 101.915 12.7083C101.915 15.4654 99.6798 17.7006 96.9221 17.7006C96.6324 17.7006 86.3254 17.6285 86.3254 17.6285C86.2931 17.3991 86.2799 7.29845 86.2799 7.06016C86.2799 4.303 88.5154 2.06787 91.2731 2.06787C94.0307 2.06787 96.2662 4.30299 96.2662 7.06015Z" fill="#930089" fill-opacity="0.3"/>
<path fill-rule="evenodd" clip-rule="evenodd" d="M75.7173 28.9173C75.7173 28.6779 75.7342 28.4424 75.7667 28.212C75.5363 28.2446 75.3008 28.2615 75.0613 28.2615C72.3037 28.2615 70.0682 26.0263 70.0682 23.2692C70.0682 20.512 72.3037 18.2769 75.0613 18.2769C75.3511 18.2769 85.6581 18.3489 85.6581 18.3489C85.6904 18.5783 85.7036 28.679 85.7035 28.9173C85.7035 31.6745 83.468 33.9096 80.7104 33.9096C77.9528 33.9096 75.7173 31.6745 75.7173 28.9173Z" fill="white"/>
<path fill-rule="evenodd" clip-rule="evenodd" d="M75.7173 28.9173C75.7173 28.6779 75.7342 28.4424 75.7667 28.212C75.5363 28.2446 75.3008 28.2615 75.0613 28.2615C72.3037 28.2615 70.0682 26.0263 70.0682 23.2692C70.0682 20.512 72.3037 18.2769 75.0613 18.2769C75.3511 18.2769 85.6581 18.3489 85.6581 18.3489C85.6904 18.5783 85.7036 28.679 85.7035 28.9173C85.7035 31.6745 83.468 33.9096 80.7104 33.9096C77.9528 33.9096 75.7173 31.6745 75.7173 28.9173Z" fill="#930089" fill-opacity="0.3"/>
<path fill-rule="evenodd" clip-rule="evenodd" d="M75.0613 7.716C75.3008 7.716 75.5363 7.73285 75.7667 7.76543C75.7342 7.53503 75.7173 7.29956 75.7173 7.06016C75.7173 4.303 77.9528 2.06788 80.7104 2.06788C83.468 2.06788 85.7036 4.303 85.7036 7.06016C85.7035 7.34987 85.6315 17.6551 85.6315 17.6551C85.4021 17.6874 75.2997 17.7006 75.0614 17.7006C72.3037 17.7006 70.0682 15.4654 70.0682 12.7083C70.0682 9.95112 72.3037 7.716 75.0613 7.716Z" fill="#930089"/>
<path fill-rule="evenodd" clip-rule="evenodd" d="M28.9387 28.284C28.6992 28.284 28.4637 28.2671 28.2333 28.2346C28.2658 28.465 28.2827 28.7004 28.2827 28.9398C28.2827 31.697 26.0472 33.9321 23.2896 33.9321C20.532 33.9321 18.2965 31.697 18.2965 28.9398C18.2965 28.6501 18.3685 18.3449 18.3685 18.3449C18.5979 18.3126 28.7003 18.2994 28.9387 18.2994C31.6963 18.2994 33.9318 20.5346 33.9318 23.2917C33.9318 26.0489 31.6963 28.284 28.9387 28.284Z" fill="#209869"/>
<path fill-rule="evenodd" clip-rule="evenodd" d="M28.2662 7.06015C28.2662 7.29955 28.2494 7.53502 28.2168 7.76543C28.4472 7.73285 28.6827 7.71599 28.9222 7.71599C31.6798 7.71599 33.9153 9.95111 33.9153 12.7083C33.9153 15.4654 31.6798 17.7006 28.9222 17.7006C28.6324 17.7006 18.3254 17.6285 18.3254 17.6285C18.2931 17.3991 18.28 7.29845 18.28 7.06016C18.28 4.303 20.5155 2.06787 23.2731 2.06787C26.0307 2.06787 28.2662 4.30299 28.2662 7.06015Z" fill="white"/>
<path fill-rule="evenodd" clip-rule="evenodd" d="M28.2662 7.06015C28.2662 7.29955 28.2494 7.53502 28.2168 7.76543C28.4472 7.73285 28.6827 7.71599 28.9222 7.71599C31.6798 7.71599 33.9153 9.95111 33.9153 12.7083C33.9153 15.4654 31.6798 17.7006 28.9222 17.7006C28.6324 17.7006 18.3254 17.6285 18.3254 17.6285C18.2931 17.3991 18.28 7.29845 18.28 7.06016C18.28 4.303 20.5155 2.06787 23.2731 2.06787C26.0307 2.06787 28.2662 4.30299 28.2662 7.06015Z" fill="#209869" fill-opacity="0.3"/>
<path fill-rule="evenodd" clip-rule="evenodd" d="M7.71729 28.9173C7.71729 28.6779 7.73415 28.4424 7.76674 28.212C7.53629 28.2446 7.30078 28.2615 7.06134 28.2615C4.30372 28.2615 2.06822 26.0263 2.06822 23.2692C2.06822 20.512 4.30372 18.2769 7.06135 18.2769C7.35111 18.2769 17.6581 18.3489 17.6581 18.3489C17.6904 18.5783 17.7036 28.679 17.7035 28.9173C17.7035 31.6745 15.468 33.9096 12.7104 33.9096C9.95279 33.9096 7.71729 31.6745 7.71729 28.9173Z" fill="white"/>
<path fill-rule="evenodd" clip-rule="evenodd" d="M7.71729 28.9173C7.71729 28.6779 7.73415 28.4424 7.76674 28.212C7.53629 28.2446 7.30078 28.2615 7.06134 28.2615C4.30372 28.2615 2.06822 26.0263 2.06822 23.2692C2.06822 20.512 4.30372 18.2769 7.06135 18.2769C7.35111 18.2769 17.6581 18.3489 17.6581 18.3489C17.6904 18.5783 17.7036 28.679 17.7035 28.9173C17.7035 31.6745 15.468 33.9096 12.7104 33.9096C9.95279 33.9096 7.71729 31.6745 7.71729 28.9173Z" fill="#209869" fill-opacity="0.3"/>
<path fill-rule="evenodd" clip-rule="evenodd" d="M7.06135 7.716C7.30078 7.716 7.53629 7.73285 7.76674 7.76543C7.73415 7.53503 7.71729 7.29956 7.7173 7.06016C7.7173 4.303 9.9528 2.06788 12.7104 2.06788C15.468 2.06788 17.7036 4.303 17.7036 7.06016C17.7035 7.34987 17.6315 17.6551 17.6315 17.6551C17.4021 17.6874 7.29969 17.7006 7.06135 17.7006C4.30372 17.7006 2.06822 15.4654 2.06822 12.7083C2.06822 9.95112 4.30372 7.716 7.06135 7.716Z" fill="#209869"/>
</g>
<defs>
<clipPath id="clip0_1_115">
<rect width="611" height="36" fill="white"/>
</clipPath>
</defs>
</svg>
