<svg width="1557" height="463" viewBox="0 0 1557 463" fill="none" xmlns="http://www.w3.org/2000/svg">
<g opacity="0.35" clip-path="url(#clip0_16_4709)">
<path fill-rule="evenodd" clip-rule="evenodd" d="M66.2853 58.994C65.4473 58.9941 64.623 58.9351 63.8164 58.821C63.9305 59.6275 63.9895 60.4516 63.9895 61.2895C63.9895 70.9395 56.1652 78.7625 46.5135 78.7625C36.8618 78.7625 29.0376 70.9395 29.0376 61.2895C29.0376 60.2755 29.2898 24.2072 29.2898 24.2072C30.0928 24.0942 65.4511 24.048 66.2853 24.0481C75.937 24.0481 83.7612 31.871 83.7612 41.5211C83.7612 51.1711 75.937 58.994 66.2853 58.994Z" fill="#209869"/>
<path fill-rule="evenodd" clip-rule="evenodd" d="M63.9317 -15.2895C63.9317 -14.4516 63.8727 -13.6274 63.7587 -12.821C64.5652 -12.935 65.3895 -12.994 66.2275 -12.994C75.8792 -12.994 83.7035 -5.1711 83.7035 4.47897C83.7035 14.129 75.8792 21.952 66.2275 21.952C65.2134 21.952 29.139 21.6998 29.139 21.6998C29.026 20.897 28.9798 -14.4554 28.9798 -15.2894C28.9798 -24.9395 36.8041 -32.7625 46.4558 -32.7625C56.1075 -32.7625 63.9317 -24.9395 63.9317 -15.2895Z" fill="white"/>
<path fill-rule="evenodd" clip-rule="evenodd" d="M63.9317 -15.2895C63.9317 -14.4516 63.8727 -13.6274 63.7587 -12.821C64.5652 -12.935 65.3895 -12.994 66.2275 -12.994C75.8792 -12.994 83.7035 -5.1711 83.7035 4.47897C83.7035 14.129 75.8792 21.952 66.2275 21.952C65.2134 21.952 29.139 21.6998 29.139 21.6998C29.026 20.897 28.9798 -14.4554 28.9798 -15.2894C28.9798 -24.9395 36.8041 -32.7625 46.4558 -32.7625C56.1075 -32.7625 63.9317 -24.9395 63.9317 -15.2895Z" fill="#209869" fill-opacity="0.3"/>
<path fill-rule="evenodd" clip-rule="evenodd" d="M-7.98946 61.2105C-7.98947 60.3726 -7.93046 59.5485 -7.81641 58.742C-8.62298 58.8561 -9.44725 58.9151 -10.2853 58.915C-19.937 58.915 -27.7612 51.0921 -27.7612 41.4421C-27.7612 31.792 -19.937 23.969 -10.2853 23.969C-9.27111 23.9691 26.8033 24.2212 26.8033 24.2212C26.9163 25.0241 26.9624 60.3764 26.9624 61.2105C26.9624 70.8605 19.1382 78.6835 9.48648 78.6835C-0.165214 78.6835 -7.98946 70.8605 -7.98946 61.2105Z" fill="white"/>
<path fill-rule="evenodd" clip-rule="evenodd" d="M-7.98946 61.2105C-7.98947 60.3726 -7.93046 59.5485 -7.81641 58.742C-8.62298 58.8561 -9.44725 58.9151 -10.2853 58.915C-19.937 58.915 -27.7612 51.0921 -27.7612 41.4421C-27.7612 31.792 -19.937 23.969 -10.2853 23.969C-9.27111 23.9691 26.8033 24.2212 26.8033 24.2212C26.9163 25.0241 26.9624 60.3764 26.9624 61.2105C26.9624 70.8605 19.1382 78.6835 9.48648 78.6835C-0.165214 78.6835 -7.98946 70.8605 -7.98946 61.2105Z" fill="#209869" fill-opacity="0.3"/>
<path fill-rule="evenodd" clip-rule="evenodd" d="M-10.2853 -12.994C-9.44725 -12.9941 -8.62298 -12.9351 -7.81641 -12.821C-7.93046 -13.6275 -7.98947 -14.4516 -7.98946 -15.2895C-7.98946 -24.9396 -0.165218 -32.7625 9.48648 -32.7625C19.1382 -32.7625 26.9624 -24.9395 26.9624 -15.2895C26.9624 -14.2755 26.7102 21.7928 26.7102 21.7928C25.9072 21.9058 -9.4511 21.952 -10.2853 21.9519C-19.937 21.952 -27.7612 14.129 -27.7612 4.47894C-27.7612 -5.17112 -19.937 -12.994 -10.2853 -12.994Z" fill="#209869"/>
<path fill-rule="evenodd" clip-rule="evenodd" d="M209.763 337.118C210.414 336.852 211.073 336.637 211.736 336.469C211.391 335.879 211.084 335.258 210.818 334.607C207.755 327.114 211.348 318.555 218.843 315.492C226.338 312.429 234.896 316.02 237.959 323.514C238.281 324.301 249.533 352.39 249.533 352.39C248.945 352.732 221.503 363.991 220.855 364.255C213.36 367.319 204.801 363.727 201.738 356.234C198.676 348.74 202.269 340.182 209.763 337.118Z" fill="#0086B7"/>
<path fill-rule="evenodd" clip-rule="evenodd" d="M235.168 394.055C234.902 393.405 234.686 392.746 234.519 392.084C233.929 392.428 233.307 392.736 232.657 393.002C225.162 396.065 216.603 392.474 213.54 384.98C210.477 377.486 214.07 368.928 221.565 365.865C222.353 365.543 250.446 354.289 250.446 354.289C250.789 354.876 262.045 382.314 262.31 382.962C265.372 390.456 261.78 399.014 254.285 402.077C246.79 405.141 238.231 401.549 235.168 394.055Z" fill="white"/>
<path fill-rule="evenodd" clip-rule="evenodd" d="M235.168 394.055C234.902 393.405 234.686 392.746 234.519 392.084C233.929 392.428 233.307 392.736 232.657 393.002C225.162 396.065 216.603 392.474 213.54 384.98C210.477 377.486 214.07 368.928 221.565 365.865C222.353 365.543 250.446 354.289 250.446 354.289C250.789 354.876 262.045 382.314 262.31 382.962C265.372 390.456 261.78 399.014 254.285 402.077C246.79 405.141 238.231 401.549 235.168 394.055Z" fill="#0086B7" fill-opacity="0.4"/>
<path fill-rule="evenodd" clip-rule="evenodd" d="M266.737 311.823C267.003 312.474 267.219 313.132 267.386 313.795C267.977 313.45 268.598 313.143 269.249 312.877C276.744 309.813 285.302 313.405 288.365 320.899C291.428 328.392 287.835 336.95 280.34 340.014C279.553 340.336 251.459 351.59 251.459 351.59C251.117 351.002 239.86 323.564 239.596 322.916C236.533 315.423 240.126 306.865 247.621 303.801C255.116 300.738 263.674 304.329 266.737 311.823Z" fill="white"/>
<path fill-rule="evenodd" clip-rule="evenodd" d="M266.737 311.823C267.003 312.474 267.219 313.132 267.386 313.795C267.977 313.45 268.598 313.143 269.249 312.877C276.744 309.813 285.302 313.405 288.365 320.899C291.428 328.392 287.835 336.95 280.34 340.014C279.553 340.336 251.459 351.59 251.459 351.59C251.117 351.002 239.86 323.564 239.596 322.916C236.533 315.423 240.126 306.865 247.621 303.801C255.116 300.738 263.674 304.329 266.737 311.823Z" fill="#0086B7" fill-opacity="0.4"/>
<path fill-rule="evenodd" clip-rule="evenodd" d="M292.072 368.717C291.421 368.983 290.762 369.199 290.1 369.366C290.444 369.956 290.752 370.578 291.018 371.228C294.081 378.722 290.488 387.28 282.993 390.343C275.498 393.407 266.939 389.815 263.876 382.322C263.554 381.534 252.302 353.446 252.302 353.446C252.89 353.103 280.333 341.845 280.98 341.58C288.475 338.517 297.034 342.108 300.097 349.602C303.16 357.096 299.567 365.654 292.072 368.717Z" fill="#0086B7"/>
<path fill-rule="evenodd" clip-rule="evenodd" d="M1313.85 48.7582C1315.49 48.0884 1317.15 47.545 1318.81 47.1233C1317.95 45.6376 1317.17 44.0732 1316.5 42.4348C1308.79 23.5649 1317.84 2.01441 1336.71 -5.69951C1355.58 -13.4134 1377.14 -4.3697 1384.85 14.5002C1385.66 16.483 1413.99 87.2131 1413.99 87.2131C1412.51 88.0759 1343.41 116.426 1341.78 117.092C1322.91 124.806 1301.35 115.762 1293.64 96.8925C1285.93 78.0226 1294.98 56.4721 1313.85 48.7582Z" fill="#103099"/>
<path fill-rule="evenodd" clip-rule="evenodd" d="M1377.82 192.132C1377.15 190.494 1376.61 188.835 1376.19 187.167C1374.7 188.035 1373.14 188.809 1371.5 189.479C1352.62 197.193 1331.07 188.149 1323.36 169.279C1315.65 150.409 1324.69 128.859 1343.57 121.145C1345.55 120.334 1416.29 91.9955 1416.29 91.9955C1417.15 93.4751 1445.5 162.567 1446.17 164.198C1453.88 183.068 1444.83 204.618 1425.96 212.332C1407.09 220.046 1385.53 211.002 1377.82 192.132Z" fill="white"/>
<path fill-rule="evenodd" clip-rule="evenodd" d="M1377.82 192.132C1377.15 190.494 1376.61 188.835 1376.19 187.167C1374.7 188.035 1373.14 188.809 1371.5 189.479C1352.62 197.193 1331.07 188.149 1323.36 169.279C1315.65 150.409 1324.69 128.859 1343.57 121.145C1345.55 120.334 1416.29 91.9955 1416.29 91.9955C1417.15 93.4751 1445.5 162.567 1446.17 164.198C1453.88 183.068 1444.83 204.618 1425.96 212.332C1407.09 220.046 1385.53 211.002 1377.82 192.132Z" fill="#260085" fill-opacity="0.3"/>
<path fill-rule="evenodd" clip-rule="evenodd" d="M1457.32 -14.9385C1457.99 -13.3001 1458.53 -11.6414 1458.95 -9.97334C1460.44 -10.841 1462 -11.6151 1463.64 -12.2849C1482.51 -19.9988 1504.06 -10.9551 1511.78 7.91483C1519.49 26.7847 1510.44 48.3352 1491.57 56.0492C1489.59 56.8597 1418.84 85.1984 1418.84 85.1984C1417.98 83.7188 1389.64 14.627 1388.97 12.9961C1381.26 -5.8738 1390.3 -27.4243 1409.18 -35.1382C1428.05 -42.8521 1449.6 -33.8084 1457.32 -14.9385Z" fill="white"/>
<path fill-rule="evenodd" clip-rule="evenodd" d="M1457.32 -14.9385C1457.99 -13.3001 1458.53 -11.6414 1458.95 -9.97334C1460.44 -10.841 1462 -11.6151 1463.64 -12.2849C1482.51 -19.9988 1504.06 -10.9551 1511.78 7.91483C1519.49 26.7847 1510.44 48.3352 1491.57 56.0492C1489.59 56.8597 1418.84 85.1984 1418.84 85.1984C1417.98 83.7188 1389.64 14.627 1388.97 12.9961C1381.26 -5.8738 1390.3 -27.4243 1409.18 -35.1382C1428.05 -42.8521 1449.6 -33.8084 1457.32 -14.9385Z" fill="#260085" fill-opacity="0.3"/>
<path fill-rule="evenodd" clip-rule="evenodd" d="M1521.11 128.327C1519.47 128.997 1517.81 129.541 1516.15 129.962C1517.01 131.448 1517.79 133.012 1518.46 134.651C1526.17 153.521 1517.12 175.071 1498.25 182.785C1479.38 190.499 1457.82 181.455 1450.11 162.585C1449.3 160.603 1420.97 89.8724 1420.97 89.8724C1422.45 89.0097 1491.55 60.66 1493.18 59.9934C1512.05 52.2795 1533.61 61.3232 1541.32 80.1931C1549.03 99.063 1539.98 120.613 1521.11 128.327Z" fill="#103099"/>
<path fill-rule="evenodd" clip-rule="evenodd" d="M726.541 59.651C727.679 59.651 728.797 59.731 729.892 59.8858C729.737 58.7914 729.657 57.6729 729.657 56.5357C729.657 43.4392 740.276 32.8224 753.374 32.8224C766.473 32.8224 777.092 43.4392 777.092 56.5358C777.092 57.9119 776.75 106.862 776.75 106.862C775.66 107.015 727.674 107.078 726.541 107.078C713.443 107.078 702.824 96.4608 702.824 83.3643C702.824 70.2678 713.443 59.651 726.541 59.651Z" fill="#F78100"/>
<path fill-rule="evenodd" clip-rule="evenodd" d="M729.736 160.464C729.736 159.327 729.816 158.209 729.97 157.114C728.876 157.269 727.757 157.349 726.62 157.349C713.521 157.349 702.902 146.732 702.902 133.636C702.902 120.539 713.521 109.922 726.62 109.922C727.996 109.922 776.954 110.265 776.954 110.265C777.108 111.354 777.17 159.332 777.17 160.464C777.17 173.561 766.552 184.178 753.453 184.178C740.354 184.178 729.736 173.561 729.736 160.464Z" fill="white"/>
<path fill-rule="evenodd" clip-rule="evenodd" d="M729.736 160.464C729.736 159.327 729.816 158.209 729.97 157.114C728.876 157.269 727.757 157.349 726.62 157.349C713.521 157.349 702.902 146.732 702.902 133.636C702.902 120.539 713.521 109.922 726.62 109.922C727.996 109.922 776.954 110.265 776.954 110.265C777.108 111.354 777.17 159.332 777.17 160.464C777.17 173.561 766.552 184.178 753.453 184.178C740.354 184.178 729.736 173.561 729.736 160.464Z" fill="#F78100" fill-opacity="0.5"/>
<path fill-rule="evenodd" clip-rule="evenodd" d="M827.343 56.6429C827.343 57.78 827.263 58.8985 827.108 59.993C828.203 59.8382 829.321 59.7581 830.459 59.7581C843.557 59.7581 854.176 70.375 854.176 83.4715C854.176 96.568 843.557 107.185 830.459 107.185C829.082 107.185 780.124 106.843 780.124 106.843C779.971 105.753 779.908 57.7748 779.908 56.6429C779.908 43.5464 790.527 32.9296 803.625 32.9296C816.724 32.9296 827.343 43.5464 827.343 56.6429Z" fill="white"/>
<path fill-rule="evenodd" clip-rule="evenodd" d="M827.343 56.6429C827.343 57.78 827.263 58.8985 827.108 59.993C828.203 59.8382 829.321 59.7581 830.459 59.7581C843.557 59.7581 854.176 70.375 854.176 83.4715C854.176 96.568 843.557 107.185 830.459 107.185C829.082 107.185 780.124 106.843 780.124 106.843C779.971 105.753 779.908 57.7748 779.908 56.6429C779.908 43.5464 790.527 32.9296 803.625 32.9296C816.724 32.9296 827.343 43.5464 827.343 56.6429Z" fill="#F78100" fill-opacity="0.5"/>
<path fill-rule="evenodd" clip-rule="evenodd" d="M830.459 157.349C829.321 157.349 828.203 157.269 827.108 157.114C827.263 158.209 827.343 159.327 827.343 160.464C827.343 173.561 816.724 184.178 803.625 184.178C790.527 184.178 779.908 173.561 779.908 160.464C779.908 159.088 780.25 110.138 780.25 110.138C781.34 109.985 829.326 109.922 830.459 109.922C843.557 109.922 854.176 120.539 854.176 133.636C854.176 146.732 843.557 157.349 830.459 157.349Z" fill="#F78100"/>
<path fill-rule="evenodd" clip-rule="evenodd" d="M1015.48 400.354C1016.82 399.585 1018.2 398.923 1019.6 398.365C1018.68 397.175 1017.82 395.906 1017.05 394.561C1008.19 379.067 1013.57 359.323 1029.07 350.462C1044.57 341.6 1064.31 346.976 1073.17 362.47C1074.1 364.098 1106.81 422.239 1106.81 422.239C1105.63 423.158 1048.9 455.696 1047.56 456.462C1032.07 465.324 1012.32 459.947 1003.46 444.454C994.6 428.96 999.98 409.216 1015.48 400.354Z" fill="#930089"/>
<path fill-rule="evenodd" clip-rule="evenodd" d="M1087.46 517.46C1086.69 516.115 1086.03 514.737 1085.47 513.338C1084.28 514.261 1083.01 515.113 1081.66 515.882C1066.17 524.744 1046.42 519.368 1037.56 503.874C1028.7 488.38 1034.08 468.636 1049.58 459.774C1051.21 458.843 1109.36 426.127 1109.36 426.127C1110.28 427.312 1142.81 484.03 1143.58 485.369C1152.44 500.863 1147.06 520.607 1131.56 529.468C1116.06 538.33 1096.32 532.954 1087.46 517.46Z" fill="white"/>
<path fill-rule="evenodd" clip-rule="evenodd" d="M1087.46 517.46C1086.69 516.115 1086.03 514.737 1085.47 513.338C1084.28 514.261 1083.01 515.113 1081.66 515.882C1066.17 524.744 1046.42 519.368 1037.56 503.874C1028.7 488.38 1034.08 468.636 1049.58 459.774C1051.21 458.843 1109.36 426.127 1109.36 426.127C1110.28 427.312 1142.81 484.03 1143.58 485.369C1152.44 500.863 1147.06 520.607 1131.56 529.468C1116.06 538.33 1096.32 532.954 1087.46 517.46Z" fill="#930089" fill-opacity="0.3"/>
<path fill-rule="evenodd" clip-rule="evenodd" d="M1132.69 328.601C1133.46 329.946 1134.12 331.323 1134.68 332.723C1135.87 331.799 1137.14 330.948 1138.49 330.178C1153.98 321.316 1173.73 326.693 1182.59 342.187C1191.45 357.68 1186.07 377.424 1170.57 386.286C1168.94 387.217 1110.79 419.934 1110.79 419.934C1109.87 418.749 1077.34 362.031 1076.58 360.692C1067.72 345.198 1073.1 325.454 1088.59 316.592C1104.09 307.731 1123.83 313.107 1132.69 328.601Z" fill="white"/>
<path fill-rule="evenodd" clip-rule="evenodd" d="M1132.69 328.601C1133.46 329.946 1134.12 331.323 1134.68 332.723C1135.87 331.799 1137.14 330.948 1138.49 330.178C1153.98 321.316 1173.73 326.693 1182.59 342.187C1191.45 357.68 1186.07 377.424 1170.57 386.286C1168.94 387.217 1110.79 419.934 1110.79 419.934C1109.87 418.749 1077.34 362.031 1076.58 360.692C1067.72 345.198 1073.1 325.454 1088.59 316.592C1104.09 307.731 1123.83 313.107 1132.69 328.601Z" fill="#930089" fill-opacity="0.3"/>
<path fill-rule="evenodd" clip-rule="evenodd" d="M1204.51 445.632C1203.16 446.402 1201.79 447.064 1200.39 447.621C1201.31 448.811 1202.16 450.08 1202.93 451.426C1211.79 466.919 1206.41 486.663 1190.92 495.525C1175.42 504.387 1155.67 499.01 1146.81 483.517C1145.88 481.888 1113.17 423.747 1113.17 423.747C1114.36 422.829 1171.09 390.29 1172.42 389.524C1187.92 380.663 1207.67 386.039 1216.53 401.533C1225.39 417.027 1220.01 436.771 1204.51 445.632Z" fill="#930089"/>
<path fill-rule="evenodd" clip-rule="evenodd" d="M603.96 377.487C604.231 377.647 604.487 377.824 604.727 378.015C604.844 377.732 604.983 377.453 605.143 377.182C606.99 374.053 611.024 373.014 614.154 374.861C617.283 376.708 618.323 380.742 616.476 383.871C616.282 384.2 609.298 395.846 609.298 395.846C609.016 395.729 597.542 388.977 597.271 388.818C594.142 386.97 593.102 382.936 594.949 379.807C596.796 376.678 600.83 375.639 603.96 377.487Z" fill="#FB1F00"/>
<path fill-rule="evenodd" clip-rule="evenodd" d="M590.506 402.023C590.666 401.751 590.843 401.495 591.035 401.256C590.751 401.138 590.473 401 590.201 400.839C587.071 398.992 586.032 394.958 587.879 391.829C589.725 388.7 593.76 387.661 596.889 389.508C597.218 389.702 608.867 396.688 608.867 396.688C608.75 396.97 601.999 408.442 601.839 408.712C599.992 411.841 595.958 412.88 592.828 411.033C589.699 409.186 588.659 405.152 590.506 402.023Z" fill="white"/>
<path fill-rule="evenodd" clip-rule="evenodd" d="M590.506 402.023C590.666 401.751 590.843 401.495 591.035 401.256C590.751 401.138 590.473 401 590.201 400.839C587.071 398.992 586.032 394.958 587.879 391.829C589.725 388.7 593.76 387.661 596.889 389.508C597.218 389.702 608.867 396.688 608.867 396.688C608.75 396.97 601.999 408.442 601.839 408.712C599.992 411.841 595.958 412.88 592.828 411.033C589.699 409.186 588.659 405.152 590.506 402.023Z" fill="#FB1F00" fill-opacity="0.4"/>
<path fill-rule="evenodd" clip-rule="evenodd" d="M628.467 390.983C628.307 391.255 628.13 391.511 627.938 391.75C628.222 391.868 628.5 392.006 628.772 392.167C631.902 394.014 632.941 398.048 631.094 401.177C629.248 404.306 625.213 405.345 622.084 403.498C621.755 403.304 610.106 396.318 610.106 396.318C610.223 396.036 616.974 384.564 617.134 384.294C618.981 381.165 623.015 380.126 626.145 381.973C629.274 383.82 630.314 387.854 628.467 390.983Z" fill="white"/>
<path fill-rule="evenodd" clip-rule="evenodd" d="M628.467 390.983C628.307 391.255 628.13 391.511 627.938 391.75C628.222 391.868 628.5 392.006 628.772 392.167C631.902 394.014 632.941 398.048 631.094 401.177C629.248 404.306 625.213 405.345 622.084 403.498C621.755 403.304 610.106 396.318 610.106 396.318C610.223 396.036 616.974 384.564 617.134 384.294C618.981 381.165 623.015 380.126 626.145 381.973C629.274 383.82 630.314 387.854 628.467 390.983Z" fill="#FB1F00" fill-opacity="0.4"/>
<path fill-rule="evenodd" clip-rule="evenodd" d="M615.01 415.483C614.738 415.322 614.482 415.146 614.242 414.954C614.125 415.238 613.986 415.516 613.826 415.788C611.979 418.917 607.945 419.956 604.815 418.109C601.686 416.261 600.646 412.227 602.493 409.098C602.687 408.77 609.672 397.123 609.672 397.123C609.954 397.24 621.427 403.992 621.698 404.152C624.827 405.999 625.867 410.033 624.02 413.162C622.173 416.291 618.139 417.33 615.01 415.483Z" fill="#FB1F00"/>
</g>
<defs>
<clipPath id="clip0_16_4709">
<rect width="1557" height="463" fill="white"/>
</clipPath>
</defs>
</svg>
