<svg width="1514" height="72" viewBox="0 0 1514 72" fill="none" xmlns="http://www.w3.org/2000/svg">
<g clip-path="url(#clip0_3_4505)">
<path fill-rule="evenodd" clip-rule="evenodd" d="M66.7229 30.7373C66.4915 30.7045 66.255 30.6876 66.0145 30.6876C63.2451 30.6876 61 32.9383 61 35.7147C61 38.4911 63.2451 40.7418 66.0145 40.7418C66.2539 40.7418 76.3995 40.7286 76.6299 40.6961C76.6299 40.6961 76.7023 30.3189 76.7023 30.0271C76.7023 27.2507 74.4572 25 71.6878 25C68.9183 25 66.6733 27.2507 66.6733 30.0271C66.6733 30.2682 66.6902 30.5053 66.7229 30.7373ZM66.7395 51.3494C66.7068 51.5814 66.6898 51.8185 66.6898 52.0596C66.6898 54.836 68.9349 57.0867 71.7043 57.0867C74.4738 57.0867 76.7189 54.836 76.7189 52.0596C76.7189 51.8196 76.7056 41.6484 76.6732 41.4174C76.6732 41.4174 66.3221 41.3449 66.0311 41.3449C63.2616 41.3449 61.0166 43.5956 61.0166 46.372C61.0166 49.1484 63.2616 51.3992 66.0311 51.3992C66.2715 51.3992 66.5081 51.3822 66.7395 51.3494ZM87.3267 30.0499C87.3267 30.2909 87.3098 30.528 87.2771 30.7601C87.5085 30.7272 87.745 30.7103 87.9855 30.7103C90.7549 30.7103 93 32.961 93 35.7374C93 38.5138 90.7549 40.7646 87.9855 40.7646C87.6945 40.7646 77.3434 40.692 77.3434 40.692C77.311 40.461 77.2977 30.2898 77.2977 30.0499C77.2977 27.2735 79.5428 25.0227 82.3122 25.0227C85.0817 25.0227 87.3267 27.2734 87.3267 30.0499ZM87.2771 51.3494C87.5085 51.3822 87.745 51.3992 87.9855 51.3992C90.7549 51.3992 93 49.1484 93 46.372C93 43.5956 90.7549 41.3449 87.9855 41.3449C87.7461 41.3449 77.6005 41.3582 77.3701 41.3907C77.3701 41.3907 77.2977 51.7678 77.2977 52.0596C77.2977 54.836 79.5428 57.0867 82.3122 57.0867C85.0817 57.0867 87.3267 54.836 87.3267 52.0596C87.3267 51.8185 87.3098 51.5814 87.2771 51.3494Z" fill="white" fill-opacity="0.3"/>
<path fill-rule="evenodd" clip-rule="evenodd" d="M155.783 -19.3877C155.53 -19.5976 155.259 -19.7924 154.971 -19.9699C151.656 -22.0136 147.312 -20.9834 145.269 -17.6689C143.225 -14.3543 144.256 -10.0106 147.572 -7.96682C147.858 -7.79019 160.013 -0.318949 160.313 -0.187728C160.313 -0.187728 168.036 -12.5229 168.251 -12.8711C170.295 -16.1857 169.264 -20.5294 165.948 -22.5732C162.633 -24.6169 158.289 -23.5867 156.246 -20.2722C156.068 -19.9844 155.914 -19.6888 155.783 -19.3877ZM140.633 5.23174C140.423 5.48458 140.228 5.75515 140.051 6.04295C138.007 9.35749 139.038 13.7012 142.353 15.745C145.669 17.7887 150.013 16.7585 152.056 13.444C152.233 13.1575 159.702 1.00509 159.833 0.7054C159.833 0.7054 147.496 -7.01991 147.148 -7.23466C143.832 -9.27839 139.489 -8.24819 137.445 -4.93364C135.402 -1.6191 136.433 2.72465 139.748 4.76838C140.036 4.94584 140.331 5.10012 140.633 5.23174ZM180.953 -5.0036C180.775 -4.7158 180.58 -4.44522 180.37 -4.19238C180.672 -4.06076 180.967 -3.90649 181.255 -3.72903C184.57 -1.6853 185.601 2.65845 183.558 5.97299C181.515 9.28754 177.171 10.3177 173.855 8.27401C173.507 8.05926 161.17 0.333954 161.17 0.333954C161.301 0.0342602 168.771 -12.1181 168.947 -12.4046C170.991 -15.7192 175.335 -16.7494 178.65 -14.7056C181.965 -12.6619 182.996 -8.31814 180.953 -5.0036ZM165.217 20.3877C165.47 20.5976 165.741 20.7924 166.029 20.9699C169.344 23.0136 173.688 21.9834 175.731 18.6689C177.775 15.3543 176.744 11.0106 173.428 8.96683C173.142 8.79019 160.987 1.31895 160.687 1.18774C160.687 1.18774 152.964 13.5229 152.749 13.8711C150.705 17.1857 151.737 21.5294 155.052 23.5732C158.367 25.6169 162.711 24.5867 164.754 21.2722C164.932 20.9844 165.086 20.6888 165.217 20.3877Z" fill="white" fill-opacity="0.3"/>
<path fill-rule="evenodd" clip-rule="evenodd" d="M1449.86 -10.6682C1450.16 -10.8111 1450.47 -10.935 1450.79 -11.038C1454.5 -12.224 1458.47 -10.1788 1459.66 -6.46992C1460.84 -2.76107 1458.8 1.20696 1455.09 2.39291C1454.77 2.49541 1441.17 6.82234 1440.85 6.87758C1440.85 6.87758 1436.32 -6.9537 1436.19 -7.34341C1435.01 -11.0523 1437.05 -15.0203 1440.76 -16.2062C1444.47 -17.3922 1448.44 -15.347 1449.63 -11.6381C1449.73 -11.3161 1449.81 -10.9921 1449.86 -10.6682ZM1458.64 16.8734C1458.79 17.1693 1458.91 17.4788 1459.01 17.8008C1460.2 21.5097 1458.15 25.4777 1454.44 26.6636C1450.74 27.8496 1446.77 25.8044 1445.58 22.0955C1445.48 21.775 1441.15 8.18221 1441.1 7.85975C1441.1 7.85975 1454.93 3.33021 1455.32 3.20559C1459.03 2.01963 1463 4.06485 1464.18 7.77369C1465.37 11.4825 1463.32 15.4506 1459.62 16.6365C1459.29 16.7395 1458.97 16.8181 1458.64 16.8734ZM1421.97 -2.76337C1422.08 -2.44134 1422.2 -2.13184 1422.34 -1.83592C1422.02 -1.78064 1421.69 -1.70203 1421.37 -1.59905C1417.66 -0.4131 1415.62 3.55492 1416.8 7.26376C1417.99 10.9726 1421.96 13.0178 1425.67 11.8319C1426.06 11.7072 1439.89 7.1777 1439.89 7.1777C1439.83 6.85525 1435.51 -6.73753 1435.41 -7.05808C1434.22 -10.7669 1430.25 -12.8121 1426.54 -11.6262C1422.83 -10.4402 1420.79 -6.47221 1421.97 -2.76337ZM1431.14 25.6682C1430.84 25.8111 1430.53 25.9351 1430.21 26.038C1426.5 27.224 1422.53 25.1788 1421.34 21.4699C1420.16 17.7611 1422.2 13.7931 1425.91 12.6071C1426.23 12.5046 1439.83 8.17767 1440.15 8.12244C1440.15 8.12244 1444.68 21.9537 1444.81 22.3434C1445.99 26.0523 1443.95 30.0203 1440.24 31.2063C1436.53 32.3922 1432.56 30.347 1431.37 26.6382C1431.27 26.3161 1431.19 25.9921 1431.14 25.6682Z" fill="white" fill-opacity="0.3"/>
<path fill-rule="evenodd" clip-rule="evenodd" d="M785.3 20.298C784.924 20.2448 784.539 20.2173 784.149 20.2173C779.648 20.2173 776 23.8648 776 28.3643C776 32.8638 779.648 36.5113 784.149 36.5113C784.538 36.5113 801.024 36.4898 801.399 36.4371C801.399 36.4371 801.516 19.6198 801.516 19.147C801.516 14.6476 797.868 11 793.368 11C788.867 11 785.219 14.6475 785.219 19.147C785.219 19.5377 785.247 19.922 785.3 20.298ZM785.327 53.702C785.273 54.078 785.246 54.4623 785.246 54.853C785.246 59.3524 788.894 63 793.395 63C797.895 63 801.543 59.3524 801.543 54.853C801.543 54.4641 801.522 37.9806 801.469 37.6062C801.469 37.6062 784.648 37.4887 784.176 37.4886C779.675 37.4886 776.027 41.1362 776.027 45.6357C776.027 50.1351 779.675 53.7827 784.175 53.7827C784.566 53.7827 784.951 53.7552 785.327 53.702ZM818.781 19.1838C818.781 19.5745 818.753 19.9588 818.7 20.3348C819.076 20.2816 819.461 20.2541 819.851 20.2541C824.352 20.2541 828 23.9017 828 28.4011C828 32.9006 824.352 36.5482 819.851 36.5482C819.379 36.5482 802.558 36.4306 802.558 36.4306C802.505 36.0563 802.484 19.5727 802.484 19.1838C802.484 14.6844 806.132 11.0368 810.632 11.0368C815.133 11.0368 818.781 14.6844 818.781 19.1838ZM818.7 53.702C819.076 53.7552 819.461 53.7827 819.851 53.7827C824.352 53.7827 828 50.1352 828 45.6357C828 41.1362 824.352 37.4887 819.851 37.4887C819.462 37.4886 802.976 37.5102 802.601 37.5628C802.601 37.5628 802.484 54.3802 802.484 54.853C802.484 59.3524 806.132 63 810.632 63C815.133 63 818.781 59.3525 818.781 54.853C818.781 54.4623 818.753 54.078 818.7 53.702Z" fill="white" fill-opacity="0.3"/>
<path fill-rule="evenodd" clip-rule="evenodd" d="M216.535 45.0383C216.236 45.174 215.942 45.3324 215.657 45.5137C212.37 47.6027 211.399 51.9602 213.487 55.2464C215.576 58.5326 219.933 59.5033 223.22 57.4143C223.504 57.2338 235.535 49.5653 235.784 49.353C235.784 49.353 228.064 37.0157 227.845 36.6704C225.756 33.3841 221.398 32.4135 218.112 34.5025C214.825 36.5914 213.853 40.9489 215.942 44.2352C216.123 44.5205 216.322 44.7884 216.535 45.0383ZM232.06 69.4229C232.196 69.7222 232.354 70.0156 232.535 70.301C234.624 73.5872 238.982 74.5578 242.268 72.4689C245.555 70.3799 246.527 66.0224 244.438 62.7362C244.258 62.4522 236.591 50.4232 236.378 50.1742C236.378 50.1742 224.039 57.8961 223.693 58.1156C220.407 60.2045 219.435 64.562 221.524 67.8483C223.612 71.1345 227.97 72.1051 231.257 70.0162C231.542 69.8348 231.81 69.6363 232.06 69.4229ZM240.471 28.6834C240.653 28.9687 240.811 29.2621 240.947 29.5615C241.197 29.348 241.465 29.1496 241.75 28.9682C245.037 26.8792 249.394 27.8498 251.483 31.1361C253.572 34.4223 252.6 38.7798 249.313 40.8687C248.968 41.0882 236.628 48.8101 236.628 48.8101C236.416 48.5611 228.749 36.5322 228.568 36.2482C226.48 32.9619 227.451 28.6044 230.738 26.5155C234.025 24.4265 238.383 25.3971 240.471 28.6834ZM256.435 53.9316C256.734 53.7959 257.028 53.6376 257.313 53.4562C260.6 51.3673 261.571 47.0098 259.483 43.7235C257.394 40.4373 253.037 39.4667 249.75 41.5556C249.466 41.7362 237.434 49.4046 237.185 49.6169C237.185 49.6169 244.906 61.9542 245.125 62.2996C247.214 65.5858 251.571 66.5564 254.858 64.4675C258.145 62.3785 259.117 58.021 257.028 54.7348C256.847 54.4495 256.648 54.1816 256.435 53.9316Z" fill="white" fill-opacity="0.3"/>
<path fill-rule="evenodd" clip-rule="evenodd" d="M1324.05 61.0242C1324.38 61.0592 1324.71 61.1176 1325.03 61.2004C1328.81 62.1538 1331.1 65.9871 1330.14 69.7624C1329.19 73.5377 1325.36 75.8253 1321.58 74.8719C1321.26 74.7895 1307.43 71.2787 1307.12 71.1552C1307.12 71.1552 1310.59 57.0196 1310.69 56.6229C1311.64 52.8476 1315.48 50.5601 1319.25 51.5135C1323.03 52.4669 1325.32 56.3003 1324.36 60.0755C1324.28 60.4034 1324.18 60.7199 1324.05 61.0242ZM1316.95 89.0462C1316.92 89.373 1316.86 89.7012 1316.78 90.029C1315.82 93.8043 1311.99 96.0919 1308.21 95.1385C1304.44 94.1851 1302.15 90.3517 1303.1 86.5764C1303.18 86.2501 1306.69 72.4241 1306.82 72.1212C1306.82 72.1212 1320.96 75.586 1321.35 75.6862C1325.13 76.6396 1327.42 80.473 1326.46 84.2483C1325.51 88.0236 1321.68 90.3112 1317.9 89.3578C1317.57 89.275 1317.26 89.1705 1316.95 89.0462ZM1296.19 52.9962C1296.11 53.324 1296.05 53.6523 1296.02 53.979C1295.71 53.8547 1295.4 53.7502 1295.07 53.6675C1291.29 52.714 1287.46 55.0016 1286.51 58.7769C1285.55 62.5522 1287.84 66.3856 1291.62 67.339C1292.01 67.4392 1306.15 70.904 1306.15 70.904C1306.28 70.6011 1309.79 56.7751 1309.87 56.4488C1310.82 52.6736 1308.53 48.8402 1304.76 47.8868C1300.98 46.9333 1297.15 49.2209 1296.19 52.9962ZM1288.95 81.9759C1288.62 81.9408 1288.29 81.8825 1287.97 81.7997C1284.19 80.8463 1281.9 77.0129 1282.86 73.2376C1283.81 69.4623 1287.64 67.1747 1291.42 68.1281C1291.74 68.2105 1305.57 71.7213 1305.88 71.8449C1305.88 71.8449 1302.41 85.9804 1302.31 86.3771C1301.36 90.1524 1297.52 92.44 1293.75 91.4866C1289.97 90.5332 1287.68 86.6998 1288.64 82.9245C1288.72 82.5967 1288.82 82.2801 1288.95 81.9759Z" fill="white" fill-opacity="0.3"/>
<path fill-rule="evenodd" clip-rule="evenodd" d="M312.234 -18.1743C311.931 -18.3022 311.616 -18.4104 311.289 -18.497C307.524 -19.495 303.664 -17.2528 302.666 -13.489C301.668 -9.72522 303.911 -5.8651 307.676 -4.86718C308.001 -4.78093 321.797 -1.14312 322.122 -1.10417C322.122 -1.10417 325.949 -15.1457 326.054 -15.5412C327.052 -19.3049 324.809 -23.1651 321.044 -24.163C317.28 -25.1609 313.419 -22.9187 312.422 -19.1549C312.335 -18.8281 312.273 -18.5006 312.234 -18.1743ZM304.849 9.77393C304.721 10.0767 304.613 10.392 304.527 10.7188C303.529 14.4826 305.772 18.3427 309.536 19.3406C313.301 20.3385 317.161 18.0964 318.159 14.3326C318.245 14.0073 321.882 0.214162 321.921 -0.11066C321.921 -0.11066 307.877 -3.93884 307.482 -4.0437C303.717 -5.04162 299.857 -2.79944 298.859 0.964341C297.861 4.72812 300.104 8.58823 303.868 9.58615C304.195 9.6728 304.523 9.73502 304.849 9.77393ZM340.488 -11.682C340.401 -11.3552 340.293 -11.0399 340.165 -10.7372C340.491 -10.6982 340.819 -10.636 341.146 -10.5494C344.91 -9.55146 347.153 -5.69135 346.156 -1.92757C345.158 1.83621 341.297 4.07839 337.533 3.08047C337.137 2.97561 323.093 -0.852565 323.093 -0.852565C323.132 -1.17739 326.769 -14.9705 326.855 -15.2958C327.853 -19.0596 331.714 -21.3018 335.478 -20.3038C339.243 -19.3059 341.485 -15.4458 340.488 -11.682ZM332.766 17.1743C333.069 17.3022 333.384 17.4104 333.711 17.497C337.476 18.495 341.336 16.2528 342.334 12.489C343.332 8.72523 341.089 4.86511 337.324 3.86719C336.999 3.78094 323.203 0.143127 322.878 0.104178C322.878 0.104178 319.051 14.1457 318.946 14.5412C317.948 18.3049 320.191 22.1651 323.956 23.163C327.72 24.1609 331.581 21.9187 332.578 18.155C332.665 17.8282 332.727 17.5006 332.766 17.1743Z" fill="white" fill-opacity="0.3"/>
<path fill-rule="evenodd" clip-rule="evenodd" d="M1266.8 -5.89693C1267.08 -5.73149 1267.36 -5.54418 1267.62 -5.33475C1270.68 -2.92269 1271.21 1.51091 1268.79 4.56798C1266.38 7.62506 1261.95 8.14794 1258.89 5.73589C1258.63 5.52742 1247.44 -3.32361 1247.21 -3.56008C1247.21 -3.56008 1256.14 -15.0493 1256.4 -15.3705C1258.81 -18.4276 1263.24 -18.9505 1266.3 -16.5384C1269.36 -14.1264 1269.88 -9.69275 1267.47 -6.63568C1267.26 -6.37024 1267.04 -6.1239 1266.8 -5.89693ZM1248.88 16.7843C1248.71 17.0683 1248.52 17.3441 1248.31 17.6095C1245.9 20.6666 1241.47 21.1895 1238.41 18.7774C1235.35 16.3654 1234.83 11.9318 1237.24 8.8747C1237.45 8.61048 1246.3 -2.57737 1246.54 -2.80346C1246.54 -2.80346 1258.03 6.13202 1258.35 6.38547C1261.41 8.79753 1261.93 13.2311 1259.52 16.2882C1257.11 19.3453 1252.67 19.8682 1249.62 17.4561C1249.35 17.2467 1249.1 17.022 1248.88 16.7843ZM1244.65 -24.5989C1244.44 -24.3335 1244.25 -24.0577 1244.09 -23.7737C1243.86 -24.0114 1243.61 -24.2361 1243.35 -24.4455C1240.29 -26.8576 1235.86 -26.3347 1233.44 -23.2776C1231.03 -20.2205 1231.56 -15.7869 1234.61 -13.3749C1234.93 -13.1214 1246.43 -4.18593 1246.43 -4.18593C1246.66 -4.41202 1255.51 -15.5999 1255.72 -15.8641C1258.13 -18.9212 1257.61 -23.3548 1254.55 -25.7668C1251.49 -28.1789 1247.06 -27.656 1244.65 -24.5989ZM1226.2 -1.10304C1225.92 -1.26849 1225.64 -1.45579 1225.38 -1.66523C1222.32 -4.07728 1221.79 -8.51089 1224.21 -11.568C1226.62 -14.625 1231.05 -15.1479 1234.11 -12.7359C1234.37 -12.5274 1245.56 -3.67637 1245.79 -3.43989C1245.79 -3.43989 1236.86 8.04931 1236.6 8.37053C1234.19 11.4276 1229.76 11.9505 1226.7 9.53843C1223.64 7.12638 1223.12 2.69277 1225.53 -0.364298C1225.74 -0.629739 1225.96 -0.876074 1226.2 -1.10304Z" fill="white" fill-opacity="0.3"/>
<path fill-rule="evenodd" clip-rule="evenodd" d="M407.186 30.1854C406.977 30.1558 406.762 30.1404 406.544 30.1404C404.035 30.1404 402 32.1746 402 34.6839C402 37.1933 404.035 39.2275 406.544 39.2275C406.761 39.2275 415.956 39.2155 416.165 39.1861C416.165 39.1861 416.23 29.8072 416.23 29.5435C416.23 27.0342 414.196 25 411.686 25C409.176 25 407.141 27.0342 407.141 29.5435C407.141 29.7614 407.157 29.9757 407.186 30.1854ZM407.201 48.8146C407.172 49.0243 407.156 49.2386 407.156 49.4565C407.156 51.9658 409.191 54 411.701 54C414.211 54 416.245 51.9658 416.245 49.4565C416.245 49.2396 416.233 40.0469 416.204 39.8381C416.204 39.8381 406.823 39.7725 406.559 39.7725C404.05 39.7725 402.015 41.8067 402.015 44.316C402.015 46.8254 404.05 48.8596 406.559 48.8596C406.777 48.8596 406.992 48.8442 407.201 48.8146ZM425.859 29.5641C425.859 29.7819 425.843 29.9962 425.814 30.2059C426.023 30.1763 426.238 30.161 426.456 30.161C428.965 30.161 431 32.1952 431 34.7045C431 37.2138 428.965 39.248 426.456 39.248C426.192 39.248 416.811 39.1825 416.811 39.1825C416.782 38.9737 416.77 29.7809 416.77 29.5641C416.77 27.0547 418.804 25.0205 421.314 25.0205C423.824 25.0205 425.859 27.0547 425.859 29.5641ZM425.814 48.8146C426.023 48.8442 426.238 48.8596 426.456 48.8596C428.965 48.8596 431 46.8254 431 44.3161C431 41.8067 428.965 39.7725 426.456 39.7725C426.239 39.7725 417.044 39.7845 416.835 39.8139C416.835 39.8139 416.77 49.1928 416.77 49.4565C416.77 51.9658 418.804 54 421.314 54C423.824 54 425.859 51.9658 425.859 49.4565C425.859 49.2386 425.843 49.0243 425.814 48.8146Z" fill="white" fill-opacity="0.3"/>
<path fill-rule="evenodd" clip-rule="evenodd" d="M1171.81 27.1854C1172.02 27.1558 1172.24 27.1404 1172.46 27.1404C1174.97 27.1404 1177 29.1746 1177 31.6839C1177 34.1933 1174.97 36.2275 1172.46 36.2275C1172.24 36.2275 1163.04 36.2155 1162.84 36.1861C1162.84 36.1861 1162.77 26.8072 1162.77 26.5435C1162.77 24.0342 1164.8 22 1167.31 22C1169.82 22 1171.86 24.0342 1171.86 26.5435C1171.86 26.7614 1171.84 26.9757 1171.81 27.1854ZM1171.8 45.8146C1171.83 46.0243 1171.84 46.2386 1171.84 46.4565C1171.84 48.9658 1169.81 51 1167.3 51C1164.79 51 1162.75 48.9658 1162.75 46.4565C1162.75 46.2396 1162.77 37.0469 1162.8 36.8381C1162.8 36.8381 1172.18 36.7725 1172.44 36.7725C1174.95 36.7725 1176.98 38.8067 1176.98 41.316C1176.98 43.8254 1174.95 45.8596 1172.44 45.8596C1172.22 45.8596 1172.01 45.8442 1171.8 45.8146ZM1153.14 26.5641C1153.14 26.7819 1153.16 26.9962 1153.19 27.2059C1152.98 27.1763 1152.76 27.161 1152.54 27.161C1150.03 27.161 1148 29.1952 1148 31.7045C1148 34.2138 1150.03 36.248 1152.54 36.248C1152.81 36.248 1162.19 36.1825 1162.19 36.1825C1162.22 35.9737 1162.23 26.7809 1162.23 26.5641C1162.23 24.0547 1160.2 22.0205 1157.69 22.0205C1155.18 22.0205 1153.14 24.0547 1153.14 26.5641ZM1153.19 45.8146C1152.98 45.8442 1152.76 45.8596 1152.54 45.8596C1150.03 45.8596 1148 43.8254 1148 41.3161C1148 38.8067 1150.03 36.7725 1152.54 36.7725C1152.76 36.7725 1161.96 36.7845 1162.16 36.8139C1162.16 36.8139 1162.23 46.1928 1162.23 46.4565C1162.23 48.9658 1160.2 51 1157.69 51C1155.18 51 1153.14 48.9658 1153.14 46.4565C1153.14 46.2386 1153.16 46.0243 1153.19 45.8146Z" fill="white" fill-opacity="0.3"/>
<path fill-rule="evenodd" clip-rule="evenodd" d="M513.99 46.1249C513.719 45.9389 513.432 45.7695 513.129 45.619C509.641 43.8859 505.409 45.3076 503.677 48.7945C501.944 52.2815 503.366 56.5132 506.854 58.2464C507.155 58.3962 519.94 64.7288 520.251 64.8322C520.251 64.8322 526.818 51.8446 527.001 51.4782C528.733 47.9912 527.311 43.7595 523.823 42.0264C520.336 40.2932 516.104 41.7149 514.371 45.2019C514.22 45.5046 514.094 45.813 513.99 46.1249ZM501.146 72.0223C500.96 72.2932 500.791 72.5804 500.641 72.8832C498.908 76.3701 500.33 80.6019 503.818 82.335C507.306 84.0682 511.538 82.6465 513.27 79.1595C513.42 78.8581 519.752 66.0757 519.855 65.7653C519.855 65.7653 506.865 59.1963 506.498 59.0141C503.011 57.281 498.779 58.7027 497.046 62.1897C495.313 65.6766 496.736 69.9083 500.223 71.6415C500.526 71.792 500.835 71.9187 501.146 72.0223ZM540.366 58.1557C540.216 58.4584 540.046 58.7456 539.86 59.0166C540.172 59.1202 540.481 59.2469 540.783 59.3974C544.271 61.1305 545.694 65.3623 543.961 68.8492C542.228 72.3362 537.996 73.7579 534.508 72.0247C534.142 71.8426 521.152 65.2736 521.152 65.2736C521.255 64.9632 527.586 52.1807 527.736 51.8794C529.469 48.3924 533.701 46.9707 537.189 48.7038C540.676 50.437 542.099 54.6687 540.366 58.1557ZM527.01 84.8751C527.281 85.0611 527.568 85.2305 527.871 85.3809C531.359 87.1141 535.591 85.6924 537.323 82.2054C539.056 78.7185 537.634 74.4867 534.146 72.7536C533.845 72.6038 521.06 66.2711 520.749 66.1678C520.749 66.1678 514.181 79.1554 513.999 79.5218C512.267 83.0087 513.689 87.2405 517.177 88.9736C520.664 90.7068 524.896 89.2851 526.629 85.7981C526.78 85.4954 526.906 85.187 527.01 84.8751Z" fill="white" fill-opacity="0.3"/>
<path fill-rule="evenodd" clip-rule="evenodd" d="M1073.99 57.1176C1074.26 56.9312 1074.55 56.7616 1074.85 56.6107C1078.33 54.8736 1082.57 56.2906 1084.3 59.7756C1086.04 63.2606 1084.62 67.4939 1081.14 69.231C1080.84 69.3811 1068.06 75.7282 1067.75 75.8319C1067.75 75.8319 1061.17 62.8517 1060.98 62.4855C1059.25 59.0006 1060.66 54.7672 1064.15 53.0301C1067.64 51.293 1071.87 52.71 1073.61 56.195C1073.76 56.4976 1073.88 56.8058 1073.99 57.1176ZM1086.86 83.0005C1087.05 83.2712 1087.22 83.5582 1087.37 83.8608C1089.1 87.3458 1087.69 91.5791 1084.2 93.3162C1080.72 95.0533 1076.48 93.6363 1074.74 90.1513C1074.59 89.8502 1068.25 77.0748 1068.15 76.7645C1068.15 76.7645 1081.13 70.1809 1081.49 69.9984C1084.98 68.2613 1089.21 69.6782 1090.95 73.1632C1092.69 76.6482 1091.27 80.8815 1087.78 82.6186C1087.48 82.7695 1087.17 82.8965 1086.86 83.0005ZM1047.63 69.1781C1047.78 69.4807 1047.95 69.7677 1048.13 70.0384C1047.82 70.1424 1047.51 70.2694 1047.21 70.4203C1043.72 72.1574 1042.31 76.3907 1044.04 79.8757C1045.78 83.3607 1050.01 84.7776 1053.5 83.0405C1053.87 82.858 1066.85 76.2743 1066.85 76.2743C1066.74 75.9641 1060.4 63.1887 1060.25 62.8875C1058.51 59.4025 1054.28 57.9856 1050.79 59.7227C1047.31 61.4598 1045.89 65.6931 1047.63 69.1781ZM1061.01 95.8824C1060.74 96.0688 1060.45 96.2384 1060.15 96.3892C1056.67 98.1263 1052.43 96.7094 1050.7 93.2244C1048.96 89.7394 1050.38 85.5061 1053.86 83.769C1054.16 83.6188 1066.94 77.2718 1067.25 77.1681C1067.25 77.1681 1073.83 90.1483 1074.02 90.5144C1075.75 93.9994 1074.34 98.2328 1070.85 99.9699C1067.36 101.707 1063.13 100.29 1061.39 96.805C1061.24 96.5024 1061.12 96.1942 1061.01 95.8824Z" fill="white" fill-opacity="0.3"/>
<path fill-rule="evenodd" clip-rule="evenodd" d="M579.075 -1.20946C578.792 -1.17225 578.509 -1.11483 578.227 -1.03625C574.975 -0.131247 573.073 3.23789 573.977 6.48893C574.882 9.73996 578.252 11.6418 581.503 10.7368C581.784 10.6586 593.692 7.32761 593.952 7.21425C593.952 7.21425 590.655 -4.96054 590.56 -5.30215C589.655 -8.55318 586.286 -10.455 583.034 -9.55002C579.783 -8.64501 577.88 -5.27588 578.785 -2.02484C578.863 -1.74256 578.961 -1.47045 579.075 -1.20946ZM585.812 22.9208C585.849 23.2032 585.906 23.4863 585.985 23.7686C586.89 27.0197 590.259 28.9215 593.511 28.0165C596.762 27.1115 598.665 23.7423 597.76 20.4913C597.682 20.2103 594.352 8.30469 594.238 8.04481C594.238 8.04481 582.061 11.3424 581.719 11.4375C578.468 12.3425 576.565 15.7117 577.47 18.9627C578.375 22.2137 581.744 24.1156 584.996 23.2106C585.278 23.132 585.551 23.0348 585.812 22.9208ZM603.042 -8.74744C603.121 -8.46516 603.178 -8.18198 603.215 -7.89961C603.476 -8.01365 603.748 -8.11082 604.031 -8.18939C607.282 -9.0944 610.652 -7.19257 611.557 -3.94153C612.462 -0.690492 610.559 2.67865 607.307 3.58366C606.966 3.67875 594.789 6.97637 594.789 6.97637C594.675 6.71649 591.345 -5.18914 591.267 -5.47012C590.362 -8.72116 592.264 -12.0903 595.516 -12.9953C598.768 -13.9003 602.137 -11.9985 603.042 -8.74744ZM609.925 16.2094C610.208 16.1722 610.491 16.1148 610.773 16.0362C614.025 15.1312 615.927 11.7621 615.023 8.51106C614.118 5.26003 610.748 3.35819 607.497 4.26319C607.216 4.34141 595.308 7.67238 595.048 7.78574C595.048 7.78574 598.345 19.9605 598.44 20.3021C599.345 23.5532 602.714 25.455 605.966 24.55C609.217 23.645 611.12 20.2759 610.215 17.0248C610.136 16.7425 610.039 16.4704 609.925 16.2094Z" fill="white" fill-opacity="0.3"/>
<path fill-rule="evenodd" clip-rule="evenodd" d="M1021.24 -17.2577C1021.48 -17.4175 1021.73 -17.5627 1021.99 -17.6916C1025.02 -19.1755 1028.68 -17.9214 1030.17 -14.8905C1031.65 -11.8595 1030.4 -8.19945 1027.36 -6.71551C1027.1 -6.58725 1015.99 -1.16542 1015.72 -1.07745C1015.72 -1.07745 1010.09 -12.3673 1009.94 -12.6857C1008.46 -15.7167 1009.71 -19.3768 1012.74 -20.8607C1015.77 -22.3446 1019.43 -21.0905 1020.92 -18.0596C1021.05 -17.7964 1021.15 -17.5285 1021.24 -17.2577ZM1032.24 5.25303C1032.4 5.48879 1032.54 5.73857 1032.67 6.00174C1034.16 9.0327 1032.9 12.6927 1029.87 14.1767C1026.84 15.6606 1023.18 14.4065 1021.69 11.3756C1021.57 11.1136 1016.15 0.00279322 1016.06 -0.266752C1016.06 -0.266752 1027.35 -5.89236 1027.67 -6.04829C1030.7 -7.53223 1034.36 -6.27813 1035.84 -3.24717C1037.33 -0.216206 1036.07 3.44385 1033.04 4.92779C1032.78 5.05664 1032.51 5.16484 1032.24 5.25303ZM998.321 -6.96805C998.45 -6.70488 998.595 -6.4551 998.755 -6.21935C998.484 -6.13115 998.216 -6.02295 997.953 -5.8941C994.922 -4.41016 993.667 -0.750111 995.15 2.28085C996.634 5.31181 1000.29 6.56592 1003.33 5.08197C1003.64 4.92604 1014.94 -0.699565 1014.94 -0.699565C1014.85 -0.96911 1009.43 -12.0799 1009.3 -12.3419C1007.82 -15.3728 1004.16 -16.6269 1001.12 -15.143C998.092 -13.6591 996.838 -9.99901 998.321 -6.96805ZM1009.76 16.2577C1009.52 16.4175 1009.27 16.5628 1009.01 16.6916C1005.98 18.1755 1002.32 16.9214 1000.83 13.8905C999.35 10.8595 1000.6 7.19946 1003.64 5.71551C1003.9 5.58726 1015.01 0.16542 1015.28 0.0774545C1015.28 0.0774545 1020.91 11.3673 1021.06 11.6857C1022.54 14.7167 1021.29 18.3768 1018.26 19.8607C1015.23 21.3446 1011.57 20.0905 1010.08 17.0596C1009.95 16.7964 1009.85 16.5285 1009.76 16.2577Z" fill="white" fill-opacity="0.3"/>
<path fill-rule="evenodd" clip-rule="evenodd" d="M661.269 59.2466C660.896 59.0792 660.507 58.9353 660.103 58.8174C655.451 57.4594 650.598 60.062 649.265 64.6304C647.931 69.1988 650.622 74.0031 655.274 75.3611C655.676 75.4785 672.726 80.4315 673.129 80.491C673.129 80.491 678.234 63.4514 678.375 62.9714C679.708 58.4029 677.017 53.5986 672.365 52.2407C667.713 50.8827 662.86 53.4853 661.527 58.0537C661.411 58.4504 661.326 58.8488 661.269 59.2466ZM651.397 93.1707C651.231 93.5364 651.089 93.9183 650.973 94.315C649.639 98.8834 652.33 103.688 656.982 105.046C661.635 106.404 666.487 103.801 667.821 99.2326C667.936 98.8377 672.799 82.0951 672.855 81.6992C672.855 81.6992 655.501 76.5042 655.012 76.3615C650.36 75.0036 645.507 77.6061 644.174 82.1746C642.84 86.743 645.531 91.5473 650.183 92.9053C650.587 93.0232 650.993 93.1112 651.397 93.1707ZM696.212 68.2183C696.096 68.615 695.954 68.9969 695.787 69.3626C696.192 69.4221 696.597 69.5101 697.001 69.628C701.653 70.986 704.344 75.7903 703.011 80.3587C701.677 84.9272 696.825 87.5297 692.172 86.1718C691.683 86.0291 674.329 80.8341 674.329 80.8341C674.386 80.4382 679.249 63.6955 679.364 63.3007C680.697 58.7323 685.55 56.1297 690.202 57.4877C694.855 58.8456 697.545 63.6499 696.212 68.2183ZM685.898 103.241C686.271 103.409 686.661 103.553 687.065 103.67C691.717 105.028 696.569 102.426 697.903 97.8574C699.236 93.289 696.546 88.4847 691.893 87.1267C691.491 87.0093 674.441 82.0563 674.039 81.9968C674.039 81.9968 668.933 99.0364 668.793 99.5164C667.46 104.085 670.15 108.889 674.802 110.247C679.455 111.605 684.307 109.003 685.641 104.434C685.757 104.037 685.842 103.639 685.898 103.241Z" fill="white" fill-opacity="0.3"/>
<path fill-rule="evenodd" clip-rule="evenodd" d="M960.86 70.8722C961.26 70.9547 961.66 71.0659 962.057 71.2067C966.624 72.8287 969.035 77.7791 967.442 82.2637C965.849 86.7483 960.856 89.069 956.289 87.4469C955.894 87.3068 939.171 81.3432 938.809 81.1557C938.809 81.1557 944.643 64.3515 944.811 63.8803C946.403 59.3957 951.397 57.0751 955.964 58.6971C960.531 60.3191 962.942 65.2695 961.349 69.7541C961.211 70.1435 961.047 70.5166 960.86 70.8722ZM949.008 104.156C948.929 104.55 948.821 104.943 948.683 105.333C947.09 109.817 942.096 112.138 937.529 110.516C932.962 108.894 930.551 103.943 932.144 99.4587C932.282 99.0711 938.138 82.6497 938.324 82.2956C938.324 82.2956 955.436 88.2409 955.916 88.4113C960.483 90.0333 962.894 94.9837 961.301 99.4684C959.708 103.953 954.715 106.274 950.148 104.652C949.751 104.511 949.371 104.345 949.008 104.156ZM927.277 57.6945C927.139 58.0839 927.031 58.4768 926.951 58.8707C926.589 58.6822 926.208 58.5162 925.812 58.3754C921.245 56.7534 916.251 59.074 914.658 63.5586C913.066 68.0432 915.477 72.9936 920.044 74.6156C920.524 74.7861 937.635 80.7314 937.635 80.7314C937.821 80.3772 943.678 63.9559 943.816 63.5683C945.408 59.0837 942.997 54.1333 938.43 52.5112C933.863 50.8892 928.87 53.2098 927.277 57.6945ZM915.14 92.1278C914.739 92.0452 914.34 91.9341 913.943 91.7933C909.376 90.1713 906.965 85.2209 908.558 80.7363C910.15 76.2516 915.144 73.931 919.711 75.553C920.106 75.6932 936.829 81.6568 937.19 81.8442C937.19 81.8442 931.357 98.6484 931.189 99.1197C929.597 103.604 924.603 105.925 920.036 104.303C915.469 102.681 913.058 97.7305 914.651 93.2459C914.789 92.8565 914.953 92.4834 915.14 92.1278Z" fill="white" fill-opacity="0.3"/>
</g>
<defs>
<clipPath id="clip0_3_4505">
<rect width="1514" height="72" fill="white"/>
</clipPath>
</defs>
</svg>
