<svg width="42" height="42" viewBox="0 0 42 42" fill="none" xmlns="http://www.w3.org/2000/svg">
<path fill-rule="evenodd" clip-rule="evenodd" d="M8.23824 9.002C8.51758 9.00199 8.79234 9.02166 9.0612 9.05967C9.02318 8.79086 9.00351 8.51615 9.00351 8.23685C9.00351 5.02016 11.6116 2.41252 14.8288 2.41252C18.0461 2.41252 20.6541 5.02017 20.6541 8.23685C20.6541 8.57485 20.5701 20.5976 20.5701 20.5976C20.3024 20.6353 8.5163 20.6507 8.23824 20.6507C5.02101 20.6507 2.41292 18.043 2.41292 14.8263C2.41292 11.6096 5.021 9.002 8.23824 9.002Z" fill="#260085"/>
<path fill-rule="evenodd" clip-rule="evenodd" d="M9.02276 33.7632C9.02276 33.4839 9.04243 33.2091 9.08044 32.9403C8.81159 32.9783 8.53683 32.998 8.25748 32.998C5.04025 32.998 2.43217 30.3904 2.43217 27.1737C2.43217 23.957 5.04026 21.3493 8.25749 21.3493C8.59554 21.3493 20.6203 21.4334 20.6203 21.4334C20.658 21.701 20.6734 33.4851 20.6734 33.7631C20.6734 36.9798 18.0653 39.5875 14.8481 39.5875C11.6308 39.5875 9.02276 36.9798 9.02276 33.7632Z" fill="white"/>
<path fill-rule="evenodd" clip-rule="evenodd" d="M9.02276 33.7632C9.02276 33.4839 9.04243 33.2091 9.08044 32.9403C8.81159 32.9783 8.53683 32.998 8.25748 32.998C5.04025 32.998 2.43217 30.3904 2.43217 27.1737C2.43217 23.957 5.04026 21.3493 8.25749 21.3493C8.59554 21.3493 20.6203 21.4334 20.6203 21.4334C20.658 21.701 20.6734 33.4851 20.6734 33.7631C20.6734 36.9798 18.0653 39.5875 14.8481 39.5875C11.6308 39.5875 9.02276 36.9798 9.02276 33.7632Z" fill="#260085" fill-opacity="0.3"/>
<path fill-rule="evenodd" clip-rule="evenodd" d="M32.9965 8.26317C32.9965 8.54247 32.9768 8.81718 32.9388 9.08599C33.2077 9.04798 33.4824 9.02831 33.7618 9.02831C36.979 9.02831 39.5871 11.636 39.5871 14.8526C39.5871 18.0693 36.979 20.677 33.7618 20.677C33.4237 20.677 21.3989 20.5929 21.3989 20.5929C21.3612 20.3253 21.3458 8.54118 21.3459 8.26317C21.3459 5.04649 23.9539 2.43884 27.1712 2.43884C30.3884 2.43884 32.9965 5.04648 32.9965 8.26317Z" fill="white"/>
<path fill-rule="evenodd" clip-rule="evenodd" d="M32.9965 8.26317C32.9965 8.54247 32.9768 8.81718 32.9388 9.08599C33.2077 9.04798 33.4824 9.02831 33.7618 9.02831C36.979 9.02831 39.5871 11.636 39.5871 14.8526C39.5871 18.0693 36.979 20.677 33.7618 20.677C33.4237 20.677 21.3989 20.5929 21.3989 20.5929C21.3612 20.3253 21.3458 8.54118 21.3459 8.26317C21.3459 5.04649 23.9539 2.43884 27.1712 2.43884C30.3884 2.43884 32.9965 5.04648 32.9965 8.26317Z" fill="#260085" fill-opacity="0.3"/>
<path fill-rule="evenodd" clip-rule="evenodd" d="M33.7618 32.998C33.4824 32.998 33.2077 32.9783 32.9388 32.9403C32.9768 33.2091 32.9965 33.4839 32.9965 33.7632C32.9965 36.9798 30.3884 39.5875 27.1712 39.5875C23.9539 39.5875 21.3459 36.9798 21.3459 33.7631C21.3459 33.4252 21.4299 21.4024 21.4299 21.4024C21.6976 21.3647 33.4837 21.3493 33.7618 21.3493C36.979 21.3493 39.5871 23.957 39.5871 27.1737C39.5871 30.3904 36.979 32.998 33.7618 32.998Z" fill="#260085"/>
</svg>
